<?xml version="1.0" encoding="UTF-8"?>
<svg version="1.1" xmlns="http://www.w3.org/2000/svg" width="4500" height="4500">
<path d="M0 0 C0.81041748 0.60424805 0.81041748 0.60424805 1.63720703 1.22070312 C17.40037472 13.00921727 32.1718654 25.98425392 46.08666992 39.90136719 C47.55955972 41.3720641 49.04030265 42.83453534 50.52148438 44.296875 C56.79164287 50.53031937 62.48811547 57.08331295 68 64 C69.02409481 65.21329798 70.05333828 66.422287 71.08984375 67.625 C113.49379405 117.51156799 139.7702748 181.71413004 150.25 245.875 C150.47671387 247.26150757 150.47671387 247.26150757 150.70800781 248.67602539 C151.18476509 251.77952153 151.60309227 254.88522769 152 258 C152.08720306 258.67502563 152.17440613 259.35005127 152.26425171 260.04553223 C154.14218207 275.02353964 154.35935829 289.919462 154.3125 305 C154.30976578 306.82466293 154.30976578 306.82466293 154.30697632 308.68618774 C154.26243393 326.33179376 153.83175259 343.5551777 151 361 C150.75056641 362.65781494 150.75056641 362.65781494 150.49609375 364.34912109 C140.25248548 431.85260265 111.58093973 497.66404265 66.5012207 549.22753906 C65.34302127 550.59500172 64.21424224 551.98741777 63.09838867 553.38964844 C57.61725561 560.26343232 51.75057995 566.53038881 45.5065918 572.69921875 C43.93017322 574.25724128 42.36204482 575.82325807 40.79492188 577.390625 C33.84476229 584.31638007 26.73881861 590.95404796 19 597 C24.45658741 596.41167126 29.74130939 595.46800721 35.10986328 594.33666992 C62.59575062 588.65442964 89.53583576 586.62529609 117.5625 586.5625 C119.30651093 586.5532399 119.30651093 586.5532399 121.08575439 586.54379272 C142.73769236 586.46979548 164.28251908 588.11747981 185.5625 592.25 C186.65997559 592.45979492 187.75745117 592.66958984 188.88818359 592.88574219 C218.6500218 598.77437998 246.7681971 608.70388486 274 622 C274.7724707 622.37592285 275.54494141 622.7518457 276.34082031 623.13916016 C294.64689831 632.160204 311.85799769 643.54700939 328 656 C328.87269531 656.67160156 329.74539063 657.34320312 330.64453125 658.03515625 C347.02457361 670.92220088 363.8173903 684.9235553 377.375 700.8125 C379.94748973 703.80230473 382.57990115 706.72209893 385.25 709.625 C390.27736462 715.20342482 394.8712859 721.07476436 399.45947266 727.01367188 C401.08176452 729.1054257 402.71733548 731.18625789 404.35546875 733.265625 C407.93640931 737.81881422 411.47966858 742.39981231 415 747 C415.54946289 747.71639648 416.09892578 748.43279297 416.66503906 749.17089844 C447.79932171 790.07793848 466.85073227 838.45158438 475 889 C475.16516113 889.99999023 475.33032227 890.99998047 475.50048828 892.03027344 C488.11579551 972.00114552 467.57355979 1058.58225128 420 1124 C419.50467773 1124.68465332 419.00935547 1125.36930664 418.49902344 1126.07470703 C413.0668318 1133.55043743 407.54904706 1140.83375405 401.23046875 1147.59375 C399.36729914 1149.60375435 397.57364318 1151.64701752 395.78515625 1153.72265625 C385.85186231 1165.10795351 374.95293487 1175.75978794 363 1185 C361.83986514 1185.94606034 360.68249923 1186.8955224 359.52734375 1187.84765625 C351.03504273 1194.81874897 342.28912505 1201.13513044 333 1207 C332.42378906 1207.36657715 331.84757812 1207.7331543 331.25390625 1208.11083984 C269.29881687 1247.2542339 196.25072791 1262.74691765 123.75390625 1253.19921875 C111.14806747 1251.55352303 98.7054419 1250.67819209 86 1250.6640625 C85.19581446 1250.66238068 84.39162891 1250.66069885 83.56307411 1250.65896606 C62.82791123 1250.67080346 42.28178954 1252.68712637 21.66381836 1254.70849609 C12.78193216 1255.57839783 3.89811816 1256.42746763 -4.98828125 1257.25 C-5.9264204 1257.33687954 -6.86455956 1257.42375908 -7.83112717 1257.51327133 C-42.56911583 1260.68796492 -74.21957245 1258.57461867 -106 1243 C-106.68513672 1242.67161133 -107.37027344 1242.34322266 -108.07617188 1242.00488281 C-123.39448958 1234.59891929 -136.74376028 1224.79446616 -149 1213 C-149.50096191 1212.52481934 -150.00192383 1212.04963867 -150.51806641 1211.56005859 C-162.95603828 1199.71952758 -172.65344898 1186.99549844 -181 1172 C-181.34272949 1171.39381836 -181.68545898 1170.78763672 -182.03857422 1170.16308594 C-193.93288285 1148.85695722 -201.29639378 1123.44266816 -202 1099 C-202.02046387 1098.32855957 -202.04092773 1097.65711914 -202.06201172 1096.96533203 C-203.23865383 1052.30155322 -188.87033962 1009.46584346 -159 976 C-158.3503125 975.22914062 -157.700625 974.45828125 -157.03125 973.6640625 C-153.05320736 968.94465737 -148.72124181 964.96290763 -144 961 C-143.16082031 960.24976562 -142.32164062 959.49953125 -141.45703125 958.7265625 C-132.98814908 951.32067106 -123.77218425 945.54214486 -114 940 C-113.34547852 939.62601074 -112.69095703 939.25202148 -112.01660156 938.86669922 C-90.06425335 926.53628486 -64.13493837 919.74306373 -39 919 C-37.87335937 918.96003906 -36.74671875 918.92007813 -35.5859375 918.87890625 C12.19945433 918.00915072 55.13908859 936.62477618 89.51538086 969.1784668 C122.75635913 1001.5666918 138.2887662 1046.33719194 139 1092 C138.92563704 1099.95209024 138.20395166 1107.72896537 136.98046875 1115.58203125 C132.69452078 1145.06731141 136.69606825 1175.62721459 153 1201 C161.71385891 1212.52787573 172.64633997 1219.62281656 187 1222 C223.18463615 1225.18915437 264.48115638 1210.40880623 297 1196 C298.24668457 1195.44892578 298.24668457 1195.44892578 299.51855469 1194.88671875 C340.07704166 1176.7610941 379.04349451 1147.53579115 406 1112 C406.93860897 1110.79021473 407.87742581 1109.58059072 408.81640625 1108.37109375 C456.42683873 1046.51211538 478.05784985 969.45879402 468.62109375 891.88525391 C463.10558823 850.45872035 448.30213177 810.31499223 426 775 C425.3709375 773.99839844 424.741875 772.99679687 424.09375 771.96484375 C419.93795631 765.56386491 415.44137915 759.40877635 410.9375 753.25 C410.0707666 752.06108154 410.0707666 752.06108154 409.18652344 750.84814453 C407.48498464 748.54291174 405.75497254 746.2647845 404 744 C403.15876587 742.90921143 403.15876587 742.90921143 402.30053711 741.79638672 C398.29702282 736.8904713 394.47240632 734.12811444 388.6875 731.625 C387.46848999 731.07501343 387.46848999 731.07501343 386.22485352 730.51391602 C350.34705189 714.62292668 312.9134422 703.98970248 274 699 C273.09910645 698.88140625 272.19821289 698.7628125 271.27001953 698.640625 C206.00292287 690.4349208 137.05003477 702.51643464 77.53515625 729.83740234 C75.20769321 730.90475394 72.87151548 731.94939313 70.53125 732.98828125 C40.0591254 746.69542859 12.15569275 766.13767092 -13 788 C-13.67804687 788.5775 -14.35609375 789.155 -15.0546875 789.75 C-26.19696004 799.31418244 -36.72677123 809.58096151 -47.01342773 820.05029297 C-50.20827025 823.28580205 -53.42664609 826.41797252 -56.87890625 829.37890625 C-61.84723537 833.65767863 -66.40113632 838.33145656 -71 843 C-76.17171976 848.25007916 -81.3503921 853.37071772 -86.9453125 858.16796875 C-91.1498619 861.91689207 -95.04831984 865.9884459 -99 870 C-108.48538992 879.62910795 -108.48538992 879.62910795 -112.96875 883.46875 C-118.09182794 887.86142928 -122.76514747 892.69721559 -127.5 897.5 C-132.8440751 902.92074763 -138.18065411 908.23352025 -143.96289062 913.18554688 C-148.16307206 916.92664807 -152.05428894 920.99450544 -156 925 C-165.48538992 934.62910795 -165.48538992 934.62910795 -169.96875 938.46875 C-175.09182794 942.86142928 -179.76514747 947.69721559 -184.5 952.5 C-189.93885257 958.01688489 -195.37110335 963.43535134 -201.25732422 968.47558594 C-203.74201583 970.64908194 -206.02051632 973.00103246 -208.3125 975.375 C-213.54803185 980.69524035 -219.15416593 985.36918242 -225 990 C-226.13316974 990.93288391 -227.26459791 991.86788619 -228.39453125 992.8046875 C-237.82216558 1000.5701213 -247.69545157 1007.44960353 -258 1014 C-258.63373535 1014.4031543 -259.2674707 1014.80630859 -259.92041016 1015.22167969 C-264.21658451 1017.92885804 -268.57886085 1020.50255461 -273 1023 C-273.74491699 1023.42104004 -274.48983398 1023.84208008 -275.25732422 1024.27587891 C-337.78820515 1059.19373474 -416.16712374 1073.40496822 -486 1054 C-499.88305068 1049.84648984 -513.46558078 1045.04369355 -526.16552734 1038.01367188 C-528.07364943 1036.95930364 -529.99810083 1035.93998602 -531.92578125 1034.921875 C-547.20630309 1026.72729689 -561.10981916 1016.56919726 -574 1005 C-574.59474121 1004.46697266 -575.18948242 1003.93394531 -575.80224609 1003.38476562 C-582.61622841 997.24308672 -589.13472121 991.06614405 -595 984 C-595.86625 983.02160156 -596.7325 982.04320313 -597.625 981.03515625 C-618.02474626 957.96453987 -633.26952367 931.45040293 -647 904 C-647.3717334 903.26974609 -647.7434668 902.53949219 -648.12646484 901.78710938 C-683.32353268 832.41604835 -688.16677652 749.9075673 -664.19140625 676.34765625 C-652.09354165 640.78707321 -632.77253591 609.18688239 -607 582 C-606.52691406 581.49823242 -606.05382813 580.99646484 -605.56640625 580.47949219 C-597.97170374 572.47829815 -589.83349966 565.59249473 -581 559 C-580.45682129 558.58540527 -579.91364258 558.17081055 -579.35400391 557.74365234 C-562.62502843 544.9883773 -543.60439997 534.61555537 -524 527 C-524.53173828 526.17435547 -524.53173828 526.17435547 -525.07421875 525.33203125 C-526.64494288 522.87896329 -528.20329844 520.41831414 -529.75878906 517.95556641 C-530.62859536 516.58515955 -531.50337434 515.21790213 -532.38183594 513.85302734 C-570.51447431 454.54812525 -592.26891008 386.62846853 -594 316 C-594.02191406 315.2059375 -594.04382812 314.411875 -594.06640625 313.59375 C-595.78368698 242.15487179 -576.57466528 171.2462017 -540 110 C-539.4932373 109.15034668 -538.98647461 108.30069336 -538.46435547 107.42529297 C-531.82665455 96.39559978 -524.53884474 86.05780784 -516.55078125 75.96826172 C-515.06832754 74.08672176 -513.60879349 72.1898395 -512.15625 70.28515625 C-506.33024219 62.68203939 -500.11569318 55.59010162 -493.53369141 48.63525391 C-491.95634827 46.95345761 -490.40328989 45.25195131 -488.85546875 43.54296875 C-484.15570295 38.36094949 -479.48111471 33.28309171 -474.1015625 28.7890625 C-471.9688148 26.97345201 -469.92577715 25.07688933 -467.88354492 23.16064453 C-460.92510544 16.65378851 -453.59264456 10.74755029 -446 5 C-445.10474609 4.319375 -445.10474609 4.319375 -444.19140625 3.625 C-391.55501941 -36.22017885 -329.41822205 -60.74740521 -264 -69 C-263.12085938 -69.11714355 -262.24171875 -69.23428711 -261.3359375 -69.35498047 C-170.44870062 -81.04594194 -73.14649663 -54.79272452 0 0 Z M-291 -33 C-291.66128906 -32.48308594 -292.32257813 -31.96617188 -293.00390625 -31.43359375 C-308.9762169 -18.55894335 -319.31863948 1.30925908 -324 21 C-324.17269588 21.66719521 -324.34539176 22.33439043 -324.52332085 23.02180368 C-326.77742436 33.19814424 -326.28035044 43.61981033 -326.26069641 53.98136902 C-326.26371884 56.23572663 -326.26760878 58.49008321 -326.27228898 60.74443799 C-326.28256604 66.92537391 -326.28038786 73.1062518 -326.27610838 79.28719246 C-326.27389424 85.27314728 -326.28105469 91.25908908 -326.28786864 97.2450388 C-326.3030923 110.99635275 -326.30481534 124.74764825 -326.30234561 138.49896886 C-326.3005113 149.12071185 -326.30227546 159.74244882 -326.30657005 170.36419106 C-326.30717246 171.89147655 -326.30777366 173.41876205 -326.30837366 174.94604755 C-326.30928093 177.24768031 -326.3101896 179.54931307 -326.31110601 181.85094583 C-326.31953329 203.24539141 -326.32387284 224.63983472 -326.31969929 246.03428173 C-326.31954291 246.84047662 -326.31938654 247.64667151 -326.31922542 248.47729655 C-326.31841967 252.56318252 -326.3175739 256.64906848 -326.31671212 260.73495444 C-326.31654103 261.54638754 -326.31636994 262.35782064 -326.31619367 263.19384263 C-326.31584701 264.8347573 -326.31549848 266.47567198 -326.31514808 268.11658665 C-326.30979234 293.64227261 -326.31771804 319.16792401 -326.33618164 344.69360352 C-326.3569141 373.38938394 -326.3676219 402.08514296 -326.36360615 430.78093129 C-326.36321083 433.84286423 -326.36284928 436.90479717 -326.36250877 439.96673012 C-326.36241804 440.72062316 -326.36232731 441.4745162 -326.36223383 442.25125448 C-326.36106953 453.61496774 -326.36770343 464.97865933 -326.37832069 476.34236717 C-326.39038961 489.27276005 -326.39191228 502.20310532 -326.37953053 515.13349893 C-326.373498 521.72782472 -326.37253496 528.32207765 -326.38453293 534.91640282 C-326.39540036 540.95972508 -326.3922779 547.00287682 -326.37827124 553.04619113 C-326.3756267 555.22580949 -326.37798317 557.40544124 -326.38600711 559.58504643 C-326.49569925 591.6195806 -317.95107099 617.66641051 -295.4375 641 C-275.08246967 661.34853025 -247.78345078 669.77061948 -219.5 670.25 C-189.22482219 669.73631724 -162.30652444 659.67648181 -141 638 C-140.23945313 637.23816406 -139.47890625 636.47632812 -138.6953125 635.69140625 C-117.39340692 613.10475539 -112.68547732 584.59532457 -112.73257446 554.95689392 C-112.72883396 552.7201599 -112.72423084 550.48342719 -112.71884382 548.24669653 C-112.70664791 542.1236107 -112.70687027 536.00057964 -112.70923257 529.87748444 C-112.70959954 523.94440882 -112.70060683 518.01134905 -112.69200679 512.07828126 C-112.67270413 498.45058374 -112.66703996 484.82290132 -112.66589268 471.19519173 C-112.66497214 460.66697075 -112.66084793 450.13875565 -112.65449142 439.61053658 C-112.65269622 436.57547826 -112.65091659 433.54041994 -112.64914167 430.50536162 C-112.64869957 429.75074606 -112.64825748 428.99613051 -112.64780198 428.21864782 C-112.63550011 407.00353574 -112.62760019 385.7884257 -112.62848854 364.5733099 C-112.6285197 363.77407935 -112.62855086 362.97484881 -112.62858296 362.15139916 C-112.62874916 358.1009529 -112.62894724 354.05050663 -112.62915237 350.00006037 C-112.62919226 349.1956885 -112.62923215 348.39131662 -112.62927325 347.56256984 C-112.62935413 345.9359346 -112.62943772 344.30929935 -112.62952404 342.68266411 C-112.63074906 317.38485529 -112.6157426 292.08710011 -112.58837891 266.78930664 C-112.55761746 238.33884863 -112.54044887 209.88842587 -112.54230535 181.43795019 C-112.5424546 178.40069139 -112.54255202 175.36343259 -112.54261398 172.32617378 C-112.54264895 171.20447716 -112.54264895 171.20447716 -112.54268462 170.06012001 C-112.54274601 158.0578289 -112.53000748 146.0555846 -112.51274945 134.05330739 C-112.49574568 121.97757049 -112.49385611 109.90190163 -112.5069681 97.82615935 C-112.5136815 91.29205743 -112.51366571 84.75809007 -112.4962616 78.22400093 C-112.48046374 72.23108407 -112.48346299 66.2384685 -112.50082986 60.24555869 C-112.503885 58.08880756 -112.50032415 55.93203357 -112.48910971 53.77530944 C-112.33787768 22.60197358 -119.91760279 -4.26015839 -142 -27 C-142.68449219 -27.75796875 -143.36898437 -28.5159375 -144.07421875 -29.296875 C-160.51692629 -46.92491636 -185.93354366 -57.07449403 -209.75634766 -58.12109375 C-240.49283703 -59.10702765 -267.19862355 -53.45496148 -291 -33 Z M-511 543 C-519.80017061 552.98149065 -527.35412524 563.48587047 -534 575 C-534.36464355 575.62229492 -534.72928711 576.24458984 -535.10498047 576.88574219 C-549.58732491 601.8118959 -556.79938467 632.06380148 -549.9609375 660.546875 C-549.64382813 661.68640625 -549.32671875 662.8259375 -549 664 C-548.68289063 665.18078125 -548.36578125 666.3615625 -548.0390625 667.578125 C-537.08392693 704.09524356 -507.90877685 734.65023284 -475.15356445 752.99121094 C-427.92448597 778.38626033 -376.97311985 777.25381785 -326.84765625 762.18896484 C-262.02072872 742.28723043 -200.86966514 710.98235733 -143 676 C-146.23604146 674.92131951 -147.39101382 675.07491665 -150.65625 675.70703125 C-151.58679199 675.88065186 -152.51733398 676.05427246 -153.47607422 676.2331543 C-154.47396973 676.42433838 -155.47186523 676.61552246 -156.5 676.8125 C-166.97844934 678.72445232 -177.38764544 680.12261002 -188 681 C-189.93166016 681.16822266 -189.93166016 681.16822266 -191.90234375 681.33984375 C-256.58303267 686.05681707 -321.44328947 673.66868185 -380 646 C-380.85932129 645.5982959 -381.71864258 645.1965918 -382.60400391 644.78271484 C-403.71555918 634.84717474 -423.94968277 622.90599494 -442.24707031 608.38818359 C-444.01454645 606.98848034 -445.79770487 605.6113363 -447.5859375 604.23828125 C-451.09278723 601.53558678 -454.55293623 598.77836557 -458 596 C-458.52142578 595.58443848 -459.04285156 595.16887695 -459.58007812 594.74072266 C-468.35362608 587.69937394 -476.34521658 579.86298155 -484.3125 571.9375 C-484.82455994 571.43070709 -485.33661987 570.92391418 -485.86419678 570.40176392 C-492.72180912 563.59873857 -499.01201332 556.59220789 -505 549 C-506.63823563 546.96952466 -508.29306103 544.97364818 -510 543 C-510.33 543 -510.66 543 -511 543 Z " fill="#FFFFFF" transform="translate(2291,1493)"/>
<path d="M0 0 C0.825 0.804375 1.65 1.60875 2.5 2.4375 C1.18229123 6.02680509 -0.40157739 9.02042753 -2.5546875 12.17578125 C-3.1633667 13.07022949 -3.7720459 13.96467773 -4.39916992 14.88623047 C-5.05119385 15.83127441 -5.70321777 16.77631836 -6.375 17.75 C-7.38494019 19.22170654 -7.38494019 19.22170654 -8.4152832 20.72314453 C-14.63623322 29.73502791 -21.13594183 38.51380483 -27.84179688 47.16943359 C-38.60289867 61.06326436 -48.2851993 75.70177072 -58.06225586 90.2935791 C-59.51407576 92.45848935 -60.96854082 94.62159901 -62.42382812 96.78417969 C-76.08186898 116.99738973 -76.08186898 116.99738973 -89.01513672 137.67651367 C-92.0085276 142.67784444 -95.18541513 147.52129268 -98.45874023 152.34301758 C-101.72771574 157.19406286 -104.81476386 162.14522043 -107.88427734 167.12451172 C-118.18977747 183.82886885 -129.36771937 199.52231044 -141.953125 214.58203125 C-143.4075935 216.32665887 -144.84539498 218.08380199 -146.28125 219.84375 C-157.49602916 233.42402271 -170.0215115 246.66010782 -183.96484375 257.45703125 C-186.3576322 259.32628201 -188.63490142 261.29390716 -190.9128418 263.30029297 C-199.53765636 270.83854806 -208.93967721 277.15478439 -218.5 283.4375 C-219.64879639 284.19764404 -219.64879639 284.19764404 -220.82080078 284.97314453 C-253.75069263 306.66040549 -289.79659568 323.95989979 -327.95776367 334.08447266 C-333.64545831 335.59941721 -339.10494685 337.30028286 -344.5625 339.5 C-374.53645278 351.33627171 -407.71950177 353.66766789 -439.625 353.6875 C-440.60909851 353.68817474 -441.59319702 353.68884949 -442.6071167 353.68954468 C-487.75929517 353.64083928 -533.78772888 347.9466972 -577.5 336.4375 C-576.79578612 320.46296408 -574.46187898 307.95569263 -567.5 293.4375 C-567.06324951 292.52291016 -567.06324951 292.52291016 -566.61767578 291.58984375 C-555.51661477 268.74763793 -539.45207218 248.19305693 -522.89892578 229.06298828 C-521.40899195 227.33175277 -519.93583284 225.58719766 -518.46484375 223.83984375 C-513.43454464 217.88245066 -508.3795599 212.08506414 -502.73046875 206.6953125 C-500.83481619 204.77642076 -499.08672388 202.82042036 -497.33032227 200.77661133 C-493.69748516 196.61187632 -489.8878669 192.66406877 -485.984375 188.75390625 C-485.28789856 188.05410141 -484.59142212 187.35429657 -483.87384033 186.63328552 C-482.40955086 185.1639693 -480.94393665 183.69597218 -479.47705078 182.22924805 C-477.26434805 180.01436221 -475.05977574 177.79159695 -472.85546875 175.56835938 C-465.37662126 168.05971044 -457.88441405 160.93635965 -449.5 154.4375 C-448.27913487 153.43775227 -447.06129661 152.43428721 -445.84765625 151.42578125 C-421.93871506 131.85512711 -395.52832454 116.2561363 -368.5 101.4375 C-367.35700439 100.80400635 -367.35700439 100.80400635 -366.19091797 100.15771484 C-332.41622432 81.45773702 -295.87841656 67.16663121 -259.5 54.4375 C-258.82853943 54.20158142 -258.15707886 53.96566284 -257.465271 53.72259521 C-230.87228773 44.38992797 -203.86345341 36.21314677 -176.5 29.4375 C-237.40978354 27.87463178 -297.23663826 41.75516321 -355.5 58.4375 C-356.27831177 58.65942017 -357.05662354 58.88134033 -357.85852051 59.10998535 C-377.3209947 64.66940922 -396.2320094 70.58799376 -414.5 79.4375 C-415.22445312 79.78377441 -415.94890625 80.13004883 -416.6953125 80.48681641 C-420.6646386 82.39250176 -424.59152548 84.3684252 -428.49707031 86.40136719 C-430.63284657 87.50622268 -432.78060149 88.58534561 -434.9296875 89.6640625 C-463.89600541 104.36329716 -490.90875089 123.70287584 -515.5 144.875 C-518.41765446 147.36716319 -521.38521052 149.78266933 -524.375 152.1875 C-528.05082668 155.17710144 -531.4593575 158.26369906 -534.73999023 161.6784668 C-536.39504186 163.3326001 -538.10181444 164.83302408 -539.890625 166.33984375 C-545.45638713 171.17819302 -550.624914 176.41288635 -555.82739258 181.63452148 C-557.558947 183.371436 -559.29578359 185.10293889 -561.03320312 186.83398438 C-566.73688161 192.53424106 -572.27875479 198.28630443 -577.5 204.4375 C-578.95445517 206.04518373 -580.41220895 207.64989715 -581.875 209.25 C-586.60576093 214.49930977 -591.06997052 219.93373945 -595.5 225.4375 C-596.42538408 226.57063697 -597.35118393 227.70343449 -598.27734375 228.8359375 C-604.60222178 236.61361511 -610.58494418 244.5681508 -616.31152344 252.79907227 C-616.83004883 253.53440186 -617.34857422 254.26973145 -617.8828125 255.02734375 C-618.56947998 256.01528931 -618.56947998 256.01528931 -619.27001953 257.02319336 C-619.87885986 257.72327515 -619.87885986 257.72327515 -620.5 258.4375 C-621.16 258.4375 -621.82 258.4375 -622.5 258.4375 C-617.68882305 197.64171857 -605.16653707 133.15435322 -563.203125 86.38671875 C-561.26544871 84.16905713 -559.44708345 81.8759721 -557.625 79.5625 C-545.89772793 64.84767192 -532.48433473 50.85413599 -517.5 39.4375 C-516.32416793 38.52089852 -515.14839029 37.60422721 -513.97265625 36.6875 C-493.90931835 21.20189339 -472.24814903 8.44053661 -449.47119141 -2.60351562 C-447.52057424 -3.55249063 -445.57876524 -4.51800718 -443.63671875 -5.484375 C-430.94251746 -11.71567549 -417.77022819 -16.70530596 -404.5 -21.5625 C-403.53239746 -21.91844238 -402.56479492 -22.27438477 -401.56787109 -22.64111328 C-321.38284215 -51.75998494 -233.30713418 -53.9790809 0 0 Z " fill="#008000" transform="translate(2882.5,1137.5625)"/>
<path d="M0 0 C12.46749571 1.89917049 23.71846935 12.7838011 33.51220703 20.13720703 C37.49021452 23.11583286 41.49595831 26.05652186 45.5 29 C47.08347662 30.16647218 48.66680975 31.33313918 50.25 32.5 C51.425625 33.36625 51.425625 33.36625 52.625 34.25 C61.33333333 40.66666667 70.04166667 47.08333333 78.75 53.5 C79.5342334 54.07782227 80.3184668 54.65564453 81.12646484 55.25097656 C82.70504637 56.41421026 84.28349754 57.57762088 85.86181641 58.74121094 C89.89178564 61.71188824 93.9241811 64.67917562 97.9609375 67.640625 C102.64947569 71.08185171 107.32891614 74.53512007 112 78 C112.93996826 78.69585205 112.93996826 78.69585205 113.89892578 79.40576172 C122.06440026 85.47497078 129.64076006 91.98861188 137 99 C137.65613281 99.61488281 138.31226562 100.22976563 138.98828125 100.86328125 C143.24417458 104.96263597 146.93046769 109.46753398 150.62890625 114.0703125 C152.95522096 116.9446717 155.34778994 119.75148596 157.75 122.5625 C168.10064327 134.97041399 177.27467365 148.41117044 186 162 C186.51594727 162.8034082 187.03189453 163.60681641 187.56347656 164.43457031 C194.72463709 175.64937661 201.44615408 186.89996897 207 199 C207.52980469 200.14339844 208.05960938 201.28679687 208.60546875 202.46484375 C224.5186281 238.17740959 224.5186281 238.17740959 221 250 C218.95703125 252.38671875 218.95703125 252.38671875 216 255 C214.68830512 256.23238468 213.37998705 257.46836882 212.07421875 258.70703125 C209.8852763 260.75780781 207.69418555 262.80625656 205.50195312 264.85351562 C195.48116237 274.21469461 195.48116237 274.21469461 186.4375 284.5 C182.73709751 289.10623019 178.93056361 293.5891746 175 298 C172.52970145 295.52970145 171.80238634 293.3275087 170.5234375 290.0703125 C170.02100136 288.80532083 169.51830273 287.5404334 169.01538086 286.27563477 C168.74917938 285.60122345 168.48297791 284.92681213 168.20870972 284.23196411 C145.40965047 224.35064668 145.40965047 224.35064668 111 171 C110.49178711 170.39704102 109.98357422 169.79408203 109.45996094 169.17285156 C105.69481571 164.73301404 101.86468526 160.35329616 98 156 C97.49807129 155.43345703 96.99614258 154.86691406 96.47900391 154.28320312 C91.79888376 148.43073914 91.79888376 148.43073914 86 144 C86.52207031 145.04671875 87.04414063 146.0934375 87.58203125 147.171875 C116.63876442 206.39826651 136.9153341 277.51549167 137.4375 343.875 C137.44765137 344.7407666 137.45780273 345.6065332 137.46826172 346.49853516 C137.30179057 358.47273472 132.85931422 369.6235632 128.98757935 380.8024292 C123.63199545 396.3492907 119.07965499 411.82452506 116 428 C115.77763672 429.15564453 115.55527344 430.31128906 115.32617188 431.50195312 C112.31434415 447.48780798 110.24166417 463.40547682 109.07543945 479.61962891 C108.97577881 480.88983887 108.87611816 482.16004883 108.7734375 483.46875 C108.65621338 485.14614258 108.65621338 485.14614258 108.53662109 486.85742188 C107.93075171 490.40553414 106.85599332 492.92381684 105 496 C100.032681 499.311546 95.00759417 498.52568265 89.2734375 497.5234375 C79.17989878 494.77065421 71.14881564 488.30354012 63 482 C62.4210498 481.55237305 61.84209961 481.10474609 61.24560547 480.64355469 C47.45033416 469.80470912 34.58823073 456.97111311 24 443 C23.04949175 441.76691738 22.09896994 440.53384522 21.1484375 439.30078125 C10.81027541 425.7895199 1.52942687 411.71435862 -7 397 C-7.38091797 396.34789551 -7.76183594 395.69579102 -8.15429688 395.02392578 C-34.65131212 349.4256928 -52.20980516 301.93360441 -54 249 C-54.02336426 248.32517578 -54.04672852 247.65035156 -54.07080078 246.95507812 C-55.55161218 195.93552583 -45.5909001 143.72461686 -29.6389122 95.45280647 C-25.3183403 82.36154686 -21.17212721 69.22045985 -17.1484375 56.03515625 C-16.90974379 55.25309437 -16.67105007 54.47103249 -16.42512321 53.66527176 C-14.98166006 48.93244897 -13.5424629 44.19833722 -12.10461426 39.46380615 C-10.6186321 34.57314227 -9.1285573 29.68372385 -7.63901711 24.79414272 C-6.4867555 21.01152384 -5.3350874 17.22872819 -4.18539429 13.44532776 C-3.97757324 12.76188293 -3.7697522 12.07843811 -3.55563354 11.37428284 C-2.99731143 9.53805735 -2.43936141 7.70171874 -1.88143921 5.8653717 C-1.27774206 3.90288047 -0.64929362 1.94788087 0 0 Z " fill="#008000" transform="translate(2121,905)"/>
<path d="M0 0 C18.282189 -0.04696706 36.56436209 -0.08210879 54.84659863 -0.10362434 C63.33761311 -0.11388517 71.82858984 -0.12784461 80.31958008 -0.15087891 C87.73053002 -0.17097349 95.14145259 -0.18375404 102.55242902 -0.18817699 C106.46720448 -0.19075753 110.38190174 -0.19671084 114.29665184 -0.21146011 C157.58220715 -0.36792864 201.56135185 3.42158253 235.10546875 34.0703125 C252.48726626 51.77465883 262.58073937 73.70947075 263.25 98.5 C263.02067275 122.35003413 253.70371217 144.16539271 237.02734375 161.0703125 C224.33845971 173.50566032 209.75962964 182.2555333 193 188 C192.35901367 188.22139648 191.71802734 188.44279297 191.05761719 188.67089844 C178.64976326 192.8560141 165.91092169 194.98197313 153 197 C153.67804687 197.38929688 154.35609375 197.77859375 155.0546875 198.1796875 C176.95515012 211.34423151 188.90955431 235.21231501 201.4921875 256.62109375 C208.97159543 269.3415087 216.45610578 282.01847595 224.625 294.3125 C225.23899658 295.24102783 225.85299316 296.16955566 226.4855957 297.1262207 C230.94684776 303.74230521 235.86052484 309.90020363 241 316 C241.77561279 316.92208252 242.55122559 317.84416504 243.3503418 318.79418945 C247.78916381 324.01703547 252.33460055 327.95615499 258.12890625 331.625 C258.74636719 332.07875 259.36382813 332.5325 260 333 C260 333.66 260 334.32 260 335 C230.63 335 201.26 335 171 335 C171 334.34 171 333.68 171 333 C171.804375 332.731875 172.60875 332.46375 173.4375 332.1875 C174.283125 331.795625 175.12875 331.40375 176 331 C179.2300346 321.3098962 175.38159531 312.77368161 171.05566406 304.10839844 C165.18636923 292.79266863 158.3963924 281.9764507 151.7487793 271.1081543 C146.79211812 262.99760773 141.93921968 254.83262224 137.15307617 246.62036133 C120.9812325 216.09339729 120.9812325 216.09339729 92.1875 199.1875 C85.82966331 197.91122277 79.52155176 197.66136084 73.05078125 197.42578125 C71.98621704 197.3834436 70.92165283 197.34110596 69.8248291 197.29748535 C67.21668099 197.19432998 64.60844582 197.09527614 62 197 C62.03730315 211.63938244 62.09736271 226.27852731 62.18390274 240.91770458 C62.22357209 247.71621745 62.25602556 254.51461659 62.27099609 261.31323242 C62.28548047 267.88158792 62.32072958 274.44964693 62.36830902 281.01784706 C62.38307795 283.5162581 62.39103842 286.01471951 62.39188385 288.51317406 C61.82499309 310.56737135 61.82499309 310.56737135 71 330 C72.31558703 331.02323436 73.64377755 332.03126968 75 333 C75 333.66 75 334.32 75 335 C50.25 335 25.5 335 0 335 C1 332 1 332 3.3125 330.3125 C8.75363863 325.63059002 10.76564897 318.93407942 12 312 C12.28368485 308.04784575 12.27864997 304.10823112 12.26742554 300.14715576 C12.27195665 298.96864052 12.27648776 297.79012528 12.28115618 296.57589746 C12.291592 293.32204202 12.29313193 290.06832633 12.29076743 286.81445956 C12.29035794 283.29830277 12.30141103 279.78217848 12.31088257 276.26603699 C12.32746494 269.38362326 12.33299086 262.5012438 12.33410732 255.61881176 C12.33505912 250.02175101 12.33917599 244.42470153 12.34550858 238.82764435 C12.36311353 222.94314606 12.37234863 207.05867476 12.37084763 191.17416665 C12.37076772 190.31860083 12.3706878 189.46303502 12.37060547 188.58154297 C12.37052371 187.72492704 12.37044195 186.86831111 12.37035771 185.98573712 C12.36954504 172.10744027 12.38867968 158.22925201 12.4168822 144.35098657 C12.44564203 130.08539108 12.45942079 115.8198485 12.45769465 101.5542233 C12.45703181 93.55138895 12.46247737 85.54866845 12.48405075 77.54586029 C12.50230341 70.73147011 12.50657651 63.91724539 12.4930319 57.10284129 C12.4865227 53.62987623 12.48631008 50.15722822 12.5037384 46.68429375 C12.51922065 42.90950801 12.50986154 39.13554734 12.49447632 35.36077881 C12.50476344 34.27670581 12.51505057 33.1926328 12.52564943 32.0757091 C12.43865307 22.37439636 10.26738491 12.63837536 4 5 C2.68441297 3.97676564 1.35622245 2.96873032 0 2 C0 1.34 0 0.68 0 0 Z M62 6 C62 67.05 62 128.1 62 191 C125.41136549 196.38167044 125.41136549 196.38167044 181 174 C182.24523438 173.0409375 182.24523438 173.0409375 183.515625 172.0625 C201.31348816 157.28691549 209.45788436 131.31512268 211.75 109.0625 C211.85459748 107.37618447 211.93884357 105.68844917 212 104 C212.03996094 103.17113281 212.07992187 102.34226562 212.12109375 101.48828125 C212.74452122 76.95457655 205.74597611 52.67113213 191 33 C190.45859375 32.27425781 189.9171875 31.54851563 189.359375 30.80078125 C177.4844548 16.13006673 160.14429098 9.0240485 142 6 C115.6 6 89.2 6 62 6 Z " fill="#FFFFFF" transform="translate(2449,2921)"/>
<path d="M0 0 C18.42984363 -0.04694891 36.8596715 -0.08210006 55.28956223 -0.10362434 C63.84898643 -0.11388895 72.40837325 -0.12785584 80.96777344 -0.15087891 C88.43767743 -0.17096168 95.90755431 -0.18375131 103.37748456 -0.18817699 C107.3240859 -0.19075947 111.27060975 -0.19672581 115.21718597 -0.21146011 C135.509474 -0.28425016 155.71963471 -0.32779244 175.625 4.1875 C176.57955078 4.40108154 177.53410156 4.61466309 178.51757812 4.8347168 C199.32658481 9.72983086 217.85306094 19.04539077 234 33 C234.75925781 33.65613281 235.51851562 34.31226562 236.30078125 34.98828125 C251.0424384 48.78458163 261.96001002 69.88249124 263.12646484 90.203125 C263.90668553 115.13043055 258.41344085 137.13986703 241.5625 156.1875 C240.04837574 157.79800068 238.52788291 159.40254624 237 161 C236.09701172 162.01513672 236.09701172 162.01513672 235.17578125 163.05078125 C214.4157697 185.5220302 181.95358329 192.60783966 153 197 C153.6290625 197.35191406 154.258125 197.70382813 154.90625 198.06640625 C178.27167134 211.54375018 190.55569654 237.44902828 203.86865234 259.9675293 C221.95795987 291.96907225 221.95795987 291.96907225 245.2578125 320.1796875 C247 322 247 322 247 324 C247.57492187 324.26683594 248.14984375 324.53367187 248.7421875 324.80859375 C251.07702551 326.04064495 253.03894184 327.44838275 255.125 329.0625 C257.93627263 331.23226195 257.93627263 331.23226195 261 333 C261 333.66 261 334.32 261 335 C231.3 335 201.6 335 171 335 C171 334.34 171 333.68 171 333 C171.78375 332.566875 172.5675 332.13375 173.375 331.6875 C176.52178757 329.66456514 176.93834111 328.5218492 178 325 C178.28193381 308.16855176 163.24294279 289.57048624 155.06744385 275.79907227 C153.94379983 273.9052801 152.82203111 272.01038718 151.70068359 270.11523438 C147.25263893 262.59854799 142.79409059 255.0882194 138.32330322 247.58503723 C136.0069285 243.6962928 133.70077344 239.80173502 131.40234375 235.90234375 C117.94988164 212.76406147 117.94988164 212.76406147 95 200 C87.62727721 198.20373321 80.44467629 197.60613515 72.875 197.375 C71.823125 197.33632812 70.77125 197.29765625 69.6875 197.2578125 C67.12516244 197.16463659 64.56281221 197.07882618 62 197 C62.08409941 211.29998647 62.1794324 225.59986079 62.28752708 239.89968681 C62.33739927 246.54020665 62.38373004 253.18069063 62.421875 259.82128906 C62.45884247 266.23394827 62.50523352 272.64647736 62.55806351 279.05902481 C62.5765466 281.50131057 62.59167683 283.94362416 62.60334396 286.385952 C62.62031065 289.81586686 62.64937084 293.24548766 62.68115234 296.67529297 C62.68331253 297.67727219 62.68547272 298.6792514 62.68769836 299.71159363 C62.81533697 310.54740275 64.26992373 321.59419855 71.625 330 C73.8222091 332.00862698 73.8222091 332.00862698 76 333 C76 333.66 76 334.32 76 335 C50.92 335 25.84 335 0 335 C0 334.34 0 333.68 0 333 C0.78375 332.7525 1.5675 332.505 2.375 332.25 C5.47124144 330.77559932 5.65999512 330.03407608 7 327 C7.33 326.34902344 7.66 325.69804687 8 325.02734375 C12.59492725 315.42466375 13.29899885 305.71609352 13.25396729 295.19726562 C13.25708727 294.06040062 13.26020725 292.92353561 13.26342177 291.75222015 C13.27135314 287.97017623 13.26509708 284.18829492 13.25878906 280.40625 C13.26040158 277.6835904 13.2649913 274.96093755 13.26940918 272.23828125 C13.27827407 265.62731903 13.27639417 259.01640238 13.2705839 252.40543842 C13.26605594 247.02964722 13.2654594 241.65386874 13.26763153 236.27807617 C13.26809123 235.12775005 13.26809123 235.12775005 13.26856022 233.95418501 C13.26919971 232.39597892 13.26984813 230.83777284 13.2705054 229.27956676 C13.27620018 214.68911052 13.26966418 200.09867946 13.25890467 185.50822735 C13.24996993 173.00547229 13.25152221 160.50275439 13.26074219 148 C13.27145988 133.45958088 13.27565094 118.91918381 13.26951766 104.37876129 C13.2688806 102.82648214 13.26825186 101.27420299 13.26763153 99.72192383 C13.26732298 98.95829387 13.26701443 98.19466392 13.26669653 97.40789366 C13.26497408 92.04235013 13.26787495 86.67682065 13.27259064 81.3112793 C13.27821615 74.76705774 13.27664802 68.22288413 13.26602915 61.67866802 C13.26079481 58.34359467 13.25976491 55.00866675 13.26532745 51.67358398 C13.27081308 48.04988854 13.26391202 44.42641574 13.25396729 40.80273438 C13.25842873 39.76059532 13.26289017 38.71845627 13.26748681 37.64473724 C13.20338268 25.55642405 11.60686528 13.16214691 3 4 C2.01 3.34 1.02 2.68 0 2 C0 1.34 0 0.68 0 0 Z M62 6 C62 67.05 62 128.1 62 191 C128.72914998 196.42806639 128.72914998 196.42806639 185.75 170.75 C206.1812564 148.75099868 213.21298722 119.90537987 212.14794922 90.60888672 C210.72224395 65.46847997 201.09139482 41.18976309 182.6875 23.6875 C149.59745062 -4.91110223 102.37032167 6 62 6 Z " fill="#FFFFFF" transform="translate(1550,2921)"/>
<path d="M0 0 C24.75 0 49.5 0 75 0 C73 4 73 4 70.625 6.1875 C64.12709762 13.14953827 62.8498806 21.43144179 62.85955811 30.62255859 C62.85658698 31.50207939 62.85361586 32.38160019 62.8505547 33.28777313 C62.84186862 36.24133751 62.84035946 39.19486135 62.83886719 42.1484375 C62.83423855 44.26433397 62.82921382 46.3802296 62.82382202 48.49612427 C62.81069094 54.25324471 62.8042504 60.01035349 62.79981136 65.76748657 C62.79687869 69.37046464 62.79277327 72.97343954 62.78830719 76.57641602 C62.7746236 87.86598572 62.76496405 99.15554816 62.7611053 110.44512558 C62.75663763 123.44336786 62.73915357 136.44150431 62.7101047 149.43971443 C62.68840139 159.50372084 62.67839624 169.56769768 62.67706418 179.63172722 C62.67602131 185.63284245 62.67022608 191.63385831 62.65224457 197.63494873 C62.63561639 203.2951864 62.63367904 208.95525164 62.64238358 214.61550522 C62.64314642 216.67763612 62.6389124 218.73977684 62.62892532 220.8018837 C62.55232714 237.62383451 63.80776338 254.33478869 68.5625 270.5625 C68.81153076 271.41763184 69.06056152 272.27276367 69.31713867 273.15380859 C75.68868065 293.69461723 87.88726569 312.60289188 107.20410156 322.96142578 C124.77840722 331.90148176 143.03596753 333.07201298 162 328 C179.95706491 322.07221436 193.84109567 310.54139649 203 294 C203.78310547 292.59814453 203.78310547 292.59814453 204.58203125 291.16796875 C217.47840866 266.77912337 219.31340633 239.86552602 219.2746582 212.83203125 C219.27901844 210.78798743 219.2842059 208.74394524 219.29014587 206.6999054 C219.30339643 201.21077877 219.30413101 195.72172156 219.30158257 190.23258209 C219.30050473 185.63231744 219.3054161 181.03206637 219.310188 176.43180466 C219.32123177 165.58001413 219.32174763 154.72825825 219.31567383 143.87646484 C219.30961836 132.70692222 219.32199669 121.53750506 219.3432439 110.36798382 C219.36087678 100.74202266 219.36685916 91.11610141 219.36360615 81.4901247 C219.36179814 75.75612778 219.36438269 70.0222207 219.37832069 64.28823853 C219.39092433 58.90359667 219.38893094 53.51915091 219.37590981 48.13451195 C219.37355119 46.16534546 219.37625293 44.19616503 219.38453293 42.22701454 C219.43362545 29.64012155 219.4527421 17.74071655 212 7 C210.34808509 5.64843325 208.68477344 4.31037934 207 3 C207 2.01 207 1.02 207 0 C231.75 0 256.5 0 282 0 C280 4 280 4 277.625 6.1875 C270.93629209 13.35397276 269.85059434 21.95389651 269.85523987 31.41459656 C269.85171302 32.25963094 269.84818618 33.10466532 269.84455246 33.97530681 C269.8338811 36.80605321 269.83018705 39.63676593 269.82641602 42.4675293 C269.82010905 44.49815004 269.81334309 46.5287694 269.80615234 48.55938721 C269.79148531 52.93439636 269.77975886 57.30940018 269.77020454 61.68442345 C269.7547277 68.61661131 269.73077457 75.54875384 269.70530701 82.48091125 C269.63418211 102.19468309 269.57450808 121.90848147 269.52319336 141.62231445 C269.49478068 152.50886381 269.45933532 163.39536862 269.41653961 174.28187114 C269.38993172 181.15702078 269.37192515 188.03212006 269.36050236 194.90731084 C269.35129711 199.21078164 269.33389804 203.51419201 269.31432343 207.81762695 C269.30692594 209.79511871 269.30277165 211.77262606 269.30232811 213.75013161 C269.28853995 247.79837132 263.89483732 277.81623238 239.69921875 303.3828125 C213.49349249 328.7921274 176.51331116 337.47908876 141 338.25 C103.53136456 337.38741271 65.19437374 327.78719765 38.52734375 299.90625 C28.72438503 288.63360504 21.5046274 275.77573405 17.1875 261.5 C16.89504395 260.5414209 16.89504395 260.5414209 16.59667969 259.56347656 C12.74204544 245.85131204 12.70900784 232.05203656 12.72875977 217.94067383 C12.72436442 215.84810688 12.71905934 213.75554168 12.71292114 211.66297913 C12.70148603 207.18333177 12.69596655 202.7037313 12.69503975 198.2240696 C12.69308755 191.13344202 12.67497342 184.04291063 12.65428162 176.95231628 C12.60525897 159.34875128 12.57420369 141.74516044 12.55297852 124.14154053 C12.5364383 110.44052763 12.51359611 96.73959818 12.46995777 83.03864115 C12.44823785 75.99675121 12.44011814 68.95502005 12.44235051 61.91309893 C12.44067918 57.52801456 12.42660338 53.14303328 12.40913773 48.75798607 C12.40355806 46.73239265 12.4030346 44.70677769 12.40807533 42.68118286 C12.55353869 23.16016683 12.55353869 23.16016683 4 6 C2.68824014 4.97186389 1.3630107 3.95915568 0 3 C0 2.01 0 1.02 0 0 Z " fill="#FFFFFF" transform="translate(1834,2921)"/>
<path d="M0 0 C24.75 0 49.5 0 75 0 C73 4 73 4 70.625 6.1875 C63.85115252 13.44519373 62.84939868 22.13581334 62.85955811 31.70484924 C62.85658698 32.58114091 62.85361586 33.45743258 62.8505547 34.36027855 C62.84188291 37.29691739 62.84036068 40.23351539 62.83886719 43.17016602 C62.83423758 45.2763579 62.82921273 47.38254894 62.82382202 49.48873901 C62.81070134 55.2148095 62.80425257 60.94086825 62.79981136 66.66695142 C62.79687737 70.25100629 62.79277173 73.83505798 62.78830719 77.41911125 C62.77462712 88.65101245 62.76496551 99.88290635 62.7611053 111.11481529 C62.75663672 124.04399716 62.7391469 136.97307267 62.7101047 149.90222222 C62.68840117 159.9152938 62.67839625 169.92833568 62.67706418 179.94143051 C62.67602145 185.91123193 62.67022896 191.88093344 62.65224457 197.85070992 C62.63561567 203.48059241 62.63367938 209.11030155 62.64238358 214.74020004 C62.64314635 216.79104391 62.6389134 218.84189767 62.62892532 220.89271736 C62.47756675 253.94784362 68.6822159 287.58996195 92.2109375 312.32421875 C106.10362295 325.48966976 124.49279408 331.41023519 143.40234375 331.21484375 C163.05071151 330.04148846 179.94041221 322.02087888 193.49609375 307.88671875 C197.25520156 303.55289555 200.22548593 299.0108982 203 294 C203.78310547 292.59814453 203.78310547 292.59814453 204.58203125 291.16796875 C217.19962023 267.30635112 219.14715899 241.1051051 219.16113281 214.6484375 C219.16576812 212.59572258 219.17079372 210.5430085 219.17617798 208.49029541 C219.18922958 202.94079873 219.19573192 197.39131411 219.20018864 191.8418045 C219.20312922 188.37001893 219.2072357 184.89823658 219.21169281 181.42645264 C219.22534449 170.54965799 219.23502428 159.67287081 219.2388947 148.79606819 C219.24337924 136.26530874 219.26095536 123.73465816 219.2898953 111.20393181 C219.31153086 101.49745907 219.32159987 91.79101693 219.32293582 82.08452034 C219.32398187 76.29562302 219.32984811 70.50682836 219.34775543 64.71795654 C219.36427003 59.27433672 219.36637514 53.83089643 219.35761642 48.38726044 C219.35684805 46.39552071 219.36116229 44.40377118 219.37107468 42.41205597 C219.46156754 23.77971594 219.46156754 23.77971594 212 7 C210.34808509 5.64843325 208.68477344 4.31037934 207 3 C207 2.01 207 1.02 207 0 C231.75 0 256.5 0 282 0 C280 4 280 4 277.625 6.1875 C270.92316452 13.36803802 269.85061307 21.98194219 269.85523987 31.45928955 C269.85171302 32.30911305 269.84818618 33.15893655 269.84455246 34.03451228 C269.8338807 36.88141216 269.83018699 39.72827856 269.82641602 42.57519531 C269.82010913 44.61729066 269.81334318 46.65938463 269.80615234 48.70147705 C269.79148549 53.10104333 269.77975902 57.50060432 269.77020454 61.90018463 C269.75473 68.86990327 269.73077729 75.83957679 269.70530701 82.80926514 C269.63417463 102.62965028 269.57448842 122.45006177 269.52319336 142.27050781 C269.49479134 153.21601113 269.45935225 164.16147004 269.41653961 175.10692668 C269.38991598 182.0208237 269.37191906 188.9346705 269.36050236 195.84860849 C269.35130465 200.17388208 269.33390899 204.49909535 269.31432343 208.82433319 C269.30691882 210.81353292 269.30277121 212.80274821 269.30232811 214.79196167 C269.29627671 229.83718365 268.85498325 244.95188245 264.875 259.5625 C264.55849487 260.73619141 264.55849487 260.73619141 264.2355957 261.93359375 C260.60867702 274.57475411 254.29340724 285.82316631 246 296 C245.32453125 296.83917969 244.6490625 297.67835938 243.953125 298.54296875 C221.99664741 324.38590313 187.56956948 334.66842264 154.90258789 337.43383789 C117.08039219 340.36388767 77.02804564 332.62437303 47.38671875 307.8125 C26.58259161 289.62861952 15.63188714 266.47481211 13 239 C12.86664376 235.99504502 12.85796221 232.9953063 12.86196899 229.98771667 C12.85914771 229.11476229 12.85632643 228.24180791 12.85341966 227.34240037 C12.84512832 224.43553313 12.84374013 221.52870424 12.84228516 218.62182617 C12.83761296 216.5301452 12.83246873 214.43846524 12.82688904 212.3467865 C12.81563573 207.85067529 12.8071883 203.3545706 12.80076981 198.85844994 C12.79006069 191.74311757 12.76980862 184.62783225 12.74765015 177.51252747 C12.68582194 157.28205519 12.63171947 137.05158616 12.59863281 116.82104492 C12.58026908 105.64153843 12.5513139 94.4621113 12.5106281 83.28266317 C12.48959342 77.37190064 12.47410577 71.46123794 12.47182083 65.55043602 C12.46966841 59.98944896 12.45373832 54.42866998 12.42743111 48.86774635 C12.42026023 46.83248671 12.41812636 44.7972018 12.42153358 42.76193237 C12.56247124 23.1986968 12.56247124 23.1986968 4 6 C2.68824014 4.97186389 1.3630107 3.95915568 0 3 C0 2.01 0 1.02 0 0 Z " fill="#FFFFFF" transform="translate(1243,2921)"/>
<path d="M0 0 C25.08 0 50.16 0 76 0 C75 3 75 3 72.1875 5.125 C65.68083866 10.35217398 64.02708325 19.09231827 63 27 C62.6164548 33.50393187 62.72620203 40.03217706 62.74121094 46.54443359 C62.73849753 48.52328622 62.73493463 50.50213783 62.73059082 52.48098755 C62.72150027 57.83696469 62.72499891 63.19286447 62.73134899 68.54884291 C62.73643335 74.17690194 62.73171013 79.80495461 62.72857666 85.43301392 C62.72494111 94.89334289 62.72972221 104.35364062 62.73925781 113.81396484 C62.75011007 124.70534708 62.74663865 135.59665423 62.735605 146.48803461 C62.72648267 155.87276641 62.72527182 165.25747579 62.73048234 174.6422106 C62.73357906 180.23184728 62.73407599 185.82144888 62.72740936 191.41108322 C62.72156536 196.67905244 62.72575962 201.9469266 62.73719788 207.21488571 C62.73980857 209.13188521 62.73914219 211.04889291 62.73467255 212.96588898 C62.6629644 246.89071514 66.60187088 282.55401839 90 309 C90.52980469 309.62390625 91.05960938 310.2478125 91.60546875 310.890625 C103.35296811 323.76936504 121.11965001 330.02471819 138.11328125 331.21875 C157.20900756 331.77833172 174.65440559 325.57025058 189 313 C203.4710979 299.23984352 211.44371548 281.1166453 215.8125 261.9375 C216.10483521 260.69347412 216.10483521 260.69347412 216.40307617 259.42431641 C221.54465266 234.85623696 220.29968907 209.09451662 220.26865101 184.14876151 C220.26352247 178.72611026 220.26830034 173.30346517 220.27142334 167.8808136 C220.27503925 158.79593671 220.27032257 149.71109259 220.26074219 140.6262207 C220.24981947 130.14789753 220.25342039 119.66965197 220.264395 109.19133061 C220.27348506 100.1470062 220.27474602 91.10270507 220.26951766 82.05837756 C220.26641288 76.67659247 220.26594822 71.29484384 220.27259064 65.91306114 C220.27839011 60.86407976 220.27431983 55.81519836 220.26280212 50.76622772 C220.26017126 48.92122628 220.26089353 47.07621633 220.26532745 45.23121834 C220.4462982 23.00743434 220.4462982 23.00743434 210 4 C209.01 3.34 208.02 2.68 207 2 C207 1.34 207 0.68 207 0 C232.08 0 257.16 0 283 0 C282 3 282 3 279.1875 5.125 C272.5855659 10.42871205 271.27403284 19.05035594 270 27 C269.75136241 30.07584547 269.72620733 33.12766038 269.74171448 36.2124176 C269.73620092 37.51806235 269.73620092 37.51806235 269.73057598 38.85008377 C269.72067825 41.7367872 269.72473034 44.62329486 269.72875977 47.51000977 C269.72436782 49.59225161 269.71906396 51.67449171 269.71292114 53.75672913 C269.7014541 58.2277032 269.69596412 62.69863008 269.69503975 67.16961861 C269.69309125 74.2531727 269.6749939 81.33663 269.65428162 88.42015076 C269.60519443 106.01784605 269.57426174 123.6155676 269.55297852 141.21331787 C269.53641448 154.88697374 269.51348033 168.56054631 269.46995777 182.23414654 C269.44829758 189.26098501 269.44011273 196.28766478 269.44235051 203.31453431 C269.44067162 207.70646716 269.42654876 212.09829834 269.40913773 216.49019432 C269.40358683 218.51003904 269.40300749 220.52990529 269.40807533 222.54975128 C269.47166873 250.89101378 263.61208876 277.58412381 244 299 C243.22914063 299.85207031 242.45828125 300.70414063 241.6640625 301.58203125 C231.18469262 312.62097913 218.69385522 319.75737035 205 326 C203.97777344 326.47308594 202.95554687 326.94617187 201.90234375 327.43359375 C165.2422267 342.93807013 117.40820639 341.75648065 80.63208008 327.43579102 C54.03699867 316.48850535 33.04360762 298.1236504 21.34765625 271.63671875 C16.7424072 259.2092206 13.84422641 246.43391381 13.86196899 233.16612244 C13.85914771 232.30022273 13.85632643 231.43432303 13.85341966 230.54218394 C13.84511523 227.65303205 13.84373897 224.76391868 13.84228516 221.87475586 C13.83761378 219.79794203 13.83246969 217.72112921 13.82688904 215.64431763 C13.8156277 211.17656997 13.80718397 206.7088289 13.80076981 202.2410717 C13.7900635 195.16700147 13.76981076 188.09297862 13.74765015 181.01893616 C13.68581708 160.90432919 13.63176164 140.78972508 13.59863281 120.67504883 C13.5802499 109.56217521 13.55126791 98.44938113 13.5106281 87.33656603 C13.48961981 81.46202239 13.47410959 75.58757871 13.47182083 69.71299553 C13.46966317 64.18156026 13.45368022 58.6503331 13.42743111 53.11896133 C13.42027914 51.09786313 13.41811703 49.0767396 13.42153358 47.05563164 C13.79155471 26.03610646 13.79155471 26.03610646 6 7 C4.09045981 5.17491122 2.09495575 3.61882944 0 2 C0 1.34 0 0.68 0 0 Z " fill="#FFFFFF" transform="translate(2732,2921)"/>
<path d="M0 0 C1.26481201 0.05365723 1.26481201 0.05365723 2.55517578 0.10839844 C17.85158891 0.8495509 32.74649496 3.11807336 47.76879883 5.96728516 C61.12384565 9.23475363 61.12384565 9.23475363 73.83813477 6.88525391 C75.42399743 5.4138654 75.42399743 5.4138654 77 3 C77.99 3.33 78.98 3.66 80 4 C81.83147247 14.19561036 83.6573482 24.39220566 85.47612 34.5900898 C86.3208567 39.32553006 87.16750475 44.06061181 88.01855469 48.79492188 C88.84005652 53.36526536 89.65649331 57.93648743 90.4694519 62.508358 C90.78022696 64.25094601 91.0928142 65.99321185 91.40725708 67.73514175 C91.84794635 70.17822666 92.28213172 72.62238593 92.71484375 75.06689453 C92.91120926 76.14259956 92.91120926 76.14259956 93.11154175 77.24003601 C93.80616963 81.20835836 94.12917154 84.97286144 94 89 C93.34 89 92.68 89 92 89 C91.75467529 88.45811035 91.50935059 87.9162207 91.2565918 87.35791016 C77.44852607 57.07644899 60.45275204 26.98945416 28 14 C4.34978548 5.96992716 -22.70413714 5.74110174 -45.3125 16.75 C-62.52356412 25.67861369 -75.79900542 38.6083255 -86 55 C-86.67546875 56.06476562 -87.3509375 57.12953125 -88.046875 58.2265625 C-117.39849657 106.80463386 -121.31084767 171.39601192 -108.4296875 225.453125 C-101.74778806 252.01390696 -90.4458872 275.85924149 -73 297 C-71.8553125 298.5159375 -71.8553125 298.5159375 -70.6875 300.0625 C-55.2904234 316.8918628 -34.34718294 326.64720357 -11.74609375 327.9609375 C5.85897508 328.14451486 22.33420105 322.37250612 35.25 310.25 C39.5968517 305.64535955 42.85705218 300.47506144 46 295 C46.45246094 294.22011719 46.90492188 293.44023437 47.37109375 292.63671875 C57.45178495 273.9513254 59.48440201 252.39275291 59.43359375 231.5390625 C59.438176 229.84857987 59.44348747 228.15809908 59.44947815 226.46762085 C59.45830701 222.96352454 59.45610043 219.45965746 59.44604492 215.95556641 C59.43449641 211.50111069 59.45490855 207.04744091 59.48396206 202.59308815 C59.50242797 199.11659879 59.50201227 195.64029493 59.49632454 192.16376877 C59.49617298 190.52217878 59.50207799 188.88057486 59.51461601 187.23903275 C59.59325408 175.27520267 59.0859925 162.60211609 51 153 C49.68441297 151.97676564 48.35622245 150.96873032 47 150 C47 149.34 47 148.68 47 148 C71.75 148 96.5 148 122 148 C122 148.66 122 149.32 122 150 C121.0925 150.70125 120.185 151.4025 119.25 152.125 C113.42858894 156.80684239 111.22514434 163.81269712 110 171 C109.70177409 175.60963903 109.70622279 180.21074318 109.70947266 184.82885742 C109.7034792 186.21779742 109.69667178 187.60673411 109.68911743 188.9956665 C109.67153038 192.75009615 109.66676507 196.50443449 109.66548586 200.25890136 C109.66405921 202.61089179 109.65977986 204.96285939 109.65449142 207.31484413 C109.63601314 215.53844284 109.62781778 223.76197693 109.62939453 231.9855957 C109.63059436 239.62117877 109.60951767 247.25647846 109.5779072 254.89198989 C109.55165046 261.47150651 109.5410312 268.05093113 109.54230535 274.63049966 C109.54281236 278.54943946 109.53727549 282.46812732 109.51594925 286.38701439 C109.49640821 290.07834639 109.49654892 293.7691903 109.51098251 297.46054077 C109.51402931 299.43919781 109.49750469 301.41785574 109.48010254 303.3964386 C109.54483225 312.72925119 110.50708477 323.12488517 116.5625 330.6875 C118.97001235 333.10296833 118.97001235 333.10296833 122 335 C122 335.66 122 336.32 122 337 C97.25 337 72.5 337 47 337 C48 334 48 334 50.390625 332.18359375 C53.40770431 329.6588223 54.33639941 327.70206256 55.75 324.0625 C56.15734375 323.04285156 56.5646875 322.02320312 56.984375 320.97265625 C58.65146583 316.09320964 59.12207834 311.75852946 59.09765625 306.60546875 C59.09443359 305.40341797 59.09121094 304.20136719 59.08789062 302.96289062 C59.07951172 301.71701172 59.07113281 300.47113281 59.0625 299.1875 C59.05573242 297.28967773 59.05573242 297.28967773 59.04882812 295.35351562 C59.03706251 292.2356289 59.02062272 289.11783867 59 286 C58.67676758 286.79519043 58.35353516 287.59038086 58.02050781 288.40966797 C49.21858435 309.84029629 36.67448621 324.81635893 15 334 C-7.42496097 342.34417152 -32.81869849 342.23296515 -56 337 C-57.04728271 336.76651855 -57.04728271 336.76651855 -58.11572266 336.52832031 C-93.27251493 328.3034532 -122.04475123 305.21915513 -141.1875 275.1875 C-151.72114933 258.11778731 -158.41578004 239.90564455 -162.75 220.375 C-162.94875732 219.48216309 -163.14751465 218.58932617 -163.35229492 217.66943359 C-166.61743802 202.14285944 -167.40771961 186.94013926 -167.375 171.125 C-167.37445618 170.13443604 -167.37391235 169.14387207 -167.37335205 168.12329102 C-167.3338144 152.43348788 -166.58890324 137.33887411 -163 122 C-162.78569336 121.07445313 -162.57138672 120.14890625 -162.35058594 119.1953125 C-159.29734017 106.50234319 -154.75943563 94.69750308 -149 83 C-148.43410156 81.83984375 -147.86820313 80.6796875 -147.28515625 79.484375 C-140.42247421 66.11425563 -131.43808235 54.73588784 -121 44 C-120.46141357 43.43949951 -119.92282715 42.87899902 -119.36791992 42.30151367 C-88.78265512 10.96222077 -42.85522457 -1.90549887 0 0 Z " fill="#FFFFFF" transform="translate(1100,2919)"/>
<path d="M0 0 C25.08 0 50.16 0 76 0 C75 3 75 3 72.1875 5.125 C65.58654379 10.42792645 64.2718599 19.05073159 63 27 C62.75569149 30.06389336 62.73677568 33.10253136 62.75949097 36.17495728 C62.75692769 37.47409264 62.75692769 37.47409264 62.75431263 38.79947317 C62.75104645 41.67060175 62.76197362 44.541491 62.77294922 47.41259766 C62.77351395 49.48301183 62.77319556 51.55342639 62.77206421 53.62384033 C62.77149213 59.22227858 62.78322297 64.82063053 62.79721212 70.41904879 C62.80974367 76.27800842 62.81089189 82.13697019 62.81326294 87.99594116 C62.81947059 99.08082491 62.83587173 110.16566904 62.85596192 121.25053537 C62.87834318 133.87446351 62.88931995 146.49839357 62.89935279 159.12233663 C62.92023858 185.08157968 62.95540065 211.04078762 63 237 C63.37392506 236.56843472 63.74785011 236.13686943 64.13310623 235.69222641 C65.8429118 233.71892146 67.55280286 231.7456906 69.26269531 229.77246094 C69.85092072 229.09355804 70.43914612 228.41465515 71.04519653 227.71517944 C73.95838235 224.35345752 76.87308592 220.9931358 79.796875 217.640625 C85.21869432 211.4194686 90.56263269 205.15528493 95.7578125 198.7421875 C98.30253683 195.62999852 100.89618225 192.56273503 103.5 189.5 C106.87288602 185.53100848 110.21176774 181.5398282 113.5 177.5 C117.24787798 172.8954642 121.06983444 168.35980809 124.9140625 163.8359375 C127.81244823 160.4194046 130.671551 156.97495162 133.5 153.5 C137.24787798 148.8954642 141.06983444 144.35980809 144.9140625 139.8359375 C147.81244823 136.4194046 150.671551 132.97495162 153.5 129.5 C157.24787798 124.8954642 161.06983444 120.35980809 164.9140625 115.8359375 C167.81244823 112.4194046 170.671551 108.97495162 173.5 105.5 C177.24787798 100.8954642 181.06983444 96.35980809 184.9140625 91.8359375 C187.81244823 88.4194046 190.671551 84.97495162 193.5 81.5 C197.24787798 76.8954642 201.06983444 72.35980809 204.9140625 67.8359375 C208.56465749 63.53272217 212.14092244 59.17289654 215.69921875 54.79296875 C217.74727826 52.30678445 219.83309427 49.85805376 221.93481445 47.41723633 C239.90199859 27.96267857 239.90199859 27.96267857 248 4 C247.01 3.505 247.01 3.505 246 3 C246 2.01 246 1.02 246 0 C258.87 0 271.74 0 285 0 C283.75638894 3.73083319 282.77848115 3.9530645 279.4375 5.875 C257.78974342 19.21181501 236.86313402 39.32281058 221.203125 59.2265625 C218.55409432 62.56133517 215.78493171 65.77867557 213 69 C209.44475488 73.12403982 205.93205311 77.27210848 202.5 81.5 C198.5662143 86.34596789 194.51552241 91.08098528 190.44140625 95.80859375 C187.41041716 99.33317903 184.43007419 102.89048832 181.5 106.5 C178.06791987 110.7279248 174.55448829 114.8752789 171 119 C166.68065728 124.01314773 162.44902723 129.08537515 158.27734375 134.22265625 C155.25580056 137.90759143 152.16964049 141.53568321 149.08349609 145.16650391 C146.20442157 148.55973475 143.36788508 151.9827672 140.5625 155.4375 C136.60982994 160.29525372 132.54451931 165.04682767 128.45703125 169.79077148 C124.57674852 174.30346568 120.78397574 178.87717828 117.03515625 183.5 C114.71278298 186.35281938 112.35899745 189.17740827 110 192 C111.03898437 191.59007813 112.07796875 191.18015625 113.1484375 190.7578125 C132.41357425 183.25835196 151.23871288 180.58584308 170.91015625 188.79736328 C180.83570326 193.22626267 188.44757492 199.27244622 196 207 C197.14855469 208.11761719 197.14855469 208.11761719 198.3203125 209.2578125 C205.24495883 216.38101499 210.16319581 224.82257241 215.31396484 233.25195312 C217.69269611 237.12901642 220.11240041 240.97996825 222.52978516 244.83300781 C231.52119912 259.17048132 240.47314055 273.53510391 249.25756836 288.00048828 C263.3976143 314.02184584 263.3976143 314.02184584 285 333 C285 333.66 285 334.32 285 335 C259.26 335 233.52 335 207 335 C209 331 209 331 210 330 C210.2953787 313.1634142 195.50146453 295.61313428 187 282 C186.45730469 281.12811035 185.91460938 280.2562207 185.35546875 279.35791016 C172.16726022 257.97840855 172.16726022 257.97840855 157 238 C156.08347656 236.86498047 156.08347656 236.86498047 155.1484375 235.70703125 C146.45991322 225.32013288 133.68791864 215.3705334 120 213 C107.08901461 212.12199542 96.53894173 213.28963695 86.24609375 221.89453125 C71.45427683 235.04523173 71.45427683 235.04523173 62.73930359 251.55784607 C62.7346962 252.58088333 62.73008881 253.60392059 62.7253418 254.65795898 C62.71580978 255.82024521 62.70627777 256.98253143 62.69645691 258.18003845 C62.69782402 260.06898582 62.69782402 260.06898582 62.69921875 261.99609375 C62.69279106 263.9446804 62.69279106 263.9446804 62.68623352 265.93263245 C62.67876641 268.68909776 62.67906281 271.44543508 62.68432617 274.2019043 C62.69007402 277.70173622 62.67330762 281.20103081 62.6499815 284.70077419 C62.6315097 288.07006727 62.6354343 291.43925062 62.63671875 294.80859375 C62.627509 296.04967392 62.61829926 297.29075409 62.60881042 298.56944275 C62.66674341 309.64354168 64.13240262 320.90994399 71 330 C73.63426884 331.91874605 73.63426884 331.91874605 76 333 C76 333.66 76 334.32 76 335 C50.92 335 25.84 335 0 335 C0 334.34 0 333.68 0 333 C0.78375 332.7525 1.5675 332.505 2.375 332.25 C5.47124144 330.77559932 5.65999512 330.03407608 7 327 C7.33 326.34902344 7.66 325.69804687 8 325.02734375 C12.59094915 315.43297737 13.29888594 305.72744075 13.26069641 295.217453 C13.26452196 294.08270469 13.26834751 292.94795639 13.27228898 291.77882177 C13.28254836 288.00378554 13.27864026 284.22890343 13.2746582 280.45385742 C13.27791755 277.7360643 13.28412898 275.01827956 13.29014587 272.30049133 C13.30285351 265.70055855 13.30469148 259.10066652 13.30234561 252.50072356 C13.30055779 247.13210836 13.30232202 241.76350547 13.30657005 236.39489174 C13.30716524 235.62887382 13.30776043 234.86285591 13.30837366 234.07362533 C13.30958549 232.51711644 13.31079963 230.96060755 13.31201603 229.40409867 C13.32287652 214.82786079 13.32073622 200.25164608 13.31463119 185.67540691 C13.309464 172.36449041 13.32071488 159.05364714 13.33972941 145.74274512 C13.35913987 132.04883209 13.36735815 118.35495364 13.36360615 104.66102678 C13.36169889 96.98348315 13.36413514 89.30600182 13.37832069 81.62846947 C13.3902765 75.09200398 13.39159262 68.55563913 13.37953053 62.01917215 C13.37367091 58.68974087 13.37411033 55.36064284 13.38453293 52.03120041 C14.2629692 28.48114548 14.2629692 28.48114548 6 7 C4.09045981 5.17491122 2.09495575 3.61882944 0 2 C0 1.34 0 0.68 0 0 Z " fill="#FFFFFF" transform="translate(2141,2921)"/>
<path d="M0 0 C18.282189 -0.04696706 36.56436209 -0.08210879 54.84659863 -0.10362434 C63.33761311 -0.11388517 71.82858984 -0.12784461 80.31958008 -0.15087891 C87.73053002 -0.17097349 95.14145259 -0.18375404 102.55242902 -0.18817699 C106.46720448 -0.19075753 110.38190174 -0.19671084 114.29665184 -0.21146011 C158.60955191 -0.37164229 203.38919908 3.56611168 236.75 36.1875 C253.31348928 52.91496341 262.55242685 74.36534058 263.25 97.9375 C262.95877193 123.15785061 252.98496784 144.5981397 235.47265625 162.59765625 C205.85443652 190.7371396 165.73578678 197.21418844 126.453125 197.09765625 C124.58697549 197.09578737 122.72082548 197.09436569 120.85467529 197.09336853 C115.98204149 197.08958037 111.10943827 197.0797824 106.23681641 197.06866455 C101.24902764 197.05837015 96.26123386 197.05385383 91.2734375 197.04882812 C81.51561168 197.03815621 71.7578084 197.02112515 62 197 C62.03730315 211.63938244 62.09736271 226.27852731 62.18390274 240.91770458 C62.22357209 247.71621745 62.25602556 254.51461659 62.27099609 261.31323242 C62.28548047 267.88158792 62.32072958 274.44964693 62.36830902 281.01784706 C62.38307795 283.5162581 62.39103842 286.01471951 62.39188385 288.51317406 C61.82499309 310.56737135 61.82499309 310.56737135 71 330 C72.31558703 331.02323436 73.64377755 332.03126968 75 333 C75 333.66 75 334.32 75 335 C50.25 335 25.5 335 0 335 C1 332 1 332 3.3125 330.3125 C8.75363863 325.63059002 10.76564897 318.93407942 12 312 C12.28368485 308.04784575 12.27864997 304.10823112 12.26742554 300.14715576 C12.27195665 298.96864052 12.27648776 297.79012528 12.28115618 296.57589746 C12.291592 293.32204202 12.29313193 290.06832633 12.29076743 286.81445956 C12.29035794 283.29830277 12.30141103 279.78217848 12.31088257 276.26603699 C12.32746494 269.38362326 12.33299086 262.5012438 12.33410732 255.61881176 C12.33505912 250.02175101 12.33917599 244.42470153 12.34550858 238.82764435 C12.36311353 222.94314606 12.37234863 207.05867476 12.37084763 191.17416665 C12.37076772 190.31860083 12.3706878 189.46303502 12.37060547 188.58154297 C12.37052371 187.72492704 12.37044195 186.86831111 12.37035771 185.98573712 C12.36954504 172.10744027 12.38867968 158.22925201 12.4168822 144.35098657 C12.44564203 130.08539108 12.45942079 115.8198485 12.45769465 101.5542233 C12.45703181 93.55138895 12.46247737 85.54866845 12.48405075 77.54586029 C12.50230341 70.73147011 12.50657651 63.91724539 12.4930319 57.10284129 C12.4865227 53.62987623 12.48631008 50.15722822 12.5037384 46.68429375 C12.51922065 42.90950801 12.50986154 39.13554734 12.49447632 35.36077881 C12.50476344 34.27670581 12.51505057 33.1926328 12.52564943 32.0757091 C12.43865307 22.37439636 10.26738491 12.63837536 4 5 C2.68441297 3.97676564 1.35622245 2.96873032 0 2 C0 1.34 0 0.68 0 0 Z M62 6 C62 67.05 62 128.1 62 191 C125.41136549 196.38167044 125.41136549 196.38167044 181 174 C182.24523438 173.0409375 182.24523438 173.0409375 183.515625 172.0625 C201.31348816 157.28691549 209.45788436 131.31512268 211.75 109.0625 C211.85459748 107.37618447 211.93884357 105.68844917 212 104 C212.03996094 103.17113281 212.07992187 102.34226562 212.12109375 101.48828125 C212.74578135 76.90498674 205.70527269 52.73841757 191 33 C190.50886719 32.33613281 190.01773438 31.67226562 189.51171875 30.98828125 C177.82981592 16.34476925 159.9816082 8.9969347 142 6 C115.6 6 89.2 6 62 6 Z " fill="#FFFFFF" transform="translate(3040,2921)"/>
<path d="M0 0 C25.41 0 50.82 0 77 0 C77 0.99 77 1.98 77 3 C76.071875 3.37125 76.071875 3.37125 75.125 3.75 C72.48060015 5.30552932 71.92330062 6.07621471 71 9 C70.33911541 27.45860374 78.66263188 46.01912044 84.2753067 63.38021088 C85.51011468 67.20511656 86.73702971 71.03255149 87.96435547 74.85986328 C89.482807 79.59379675 91.00170218 84.32758388 92.52365112 89.06039429 C97.2235509 103.67668491 101.87431639 118.30833063 106.51293564 132.94416428 C107.53841829 136.17918115 108.56473257 139.41393411 109.59106445 142.64868164 C109.79471021 143.29052556 109.99835596 143.93236948 110.2081728 144.59366322 C110.6195067 145.89008416 111.03084328 147.18650426 111.44218254 148.48292351 C112.05751949 150.42239531 112.67276136 152.36189725 113.28797913 154.30140686 C116.00868096 162.87821303 118.73237369 171.45406536 121.45775223 180.02938652 C122.09704613 182.0410489 122.73621539 184.05275084 123.37533569 186.06446838 C123.58584249 186.72706508 123.7963493 187.38966177 124.01323509 188.07233715 C124.43778118 189.40866038 124.86232266 190.74498507 125.28685951 192.08131123 C126.33823342 195.39049261 127.39001207 198.69954443 128.44262695 202.0083313 C132.89649191 216.00879215 137.32608196 230.01602976 141.68359375 244.046875 C142.44036125 246.47652779 143.19727608 248.90613469 143.9543457 251.33569336 C145.34377694 255.79461519 146.72255379 260.2566143 148.09448242 264.72094727 C151.46335554 275.59062534 155.12257151 286.30038157 159.19140625 296.9296875 C159.80056381 298.52367119 159.80056381 298.52367119 160.42202759 300.14985657 C164.77377865 311.31606048 169.31827354 322.54787291 178 331 C178.66 332.32 179.32 333.64 180 335 C155.25 335 130.5 335 105 335 C105 334.34 105 333.68 105 333 C105.61875 332.7525 106.2375 332.505 106.875 332.25 C109.44725117 330.73691108 109.90922935 329.74262986 111 327 C111.70582261 320.72408303 110.84590592 314.6875697 109.25 308.625 C109.04101074 307.81482422 108.83202148 307.00464844 108.61669922 306.16992188 C106.32602365 297.66561735 103.63895912 289.27608551 100.90856934 280.90447998 C100.3926063 279.32118323 99.88053931 277.73661069 99.37268066 276.1506958 C93.39693606 257.57973141 85.43944154 242.87639378 68 233 C50.46742166 224.49123989 30.59171901 224.31373814 12.25 230.1875 C-2.34978969 235.47283835 -12.2698172 244.19389609 -23 255 C-24.98 253.02 -24.98 253.02 -27 251 C-14.00202879 232.66952779 3.57425277 224.12582242 25.20703125 219.53125 C27.15118686 219.22628441 29.03295229 219.08445285 31 219 C32.06089844 218.9484375 33.12179688 218.896875 34.21484375 218.84375 C53.17078871 218.36637048 68.95104165 222.79487941 85 233 C82.92753805 224.18801664 80.38165295 215.59543801 77.59765625 206.984375 C77.1634546 205.63113678 76.72965355 204.27776996 76.29621887 202.92428589 C75.37153506 200.03867392 74.44476885 197.15374329 73.51629639 194.26934814 C71.01519518 186.49787238 68.52940615 178.72148954 66.04296875 170.9453125 C65.66177509 169.75370325 65.66177509 169.75370325 65.27288055 168.53802109 C60.06569905 152.25678411 54.95605801 135.94596071 49.875 119.625 C48.24978236 114.40591177 46.62371248 109.18708997 44.99609375 103.96875 C44.79489174 103.32365856 44.59368973 102.67856712 44.38639069 102.01392746 C38.65747557 83.65399114 32.82446602 65.32690808 26.9872942 47.00115585 C26.3683849 45.05792706 25.74976328 43.1146069 25.13121033 41.17126465 C24.38117079 38.81545814 23.63038772 36.45988816 22.87867737 34.10461426 C21.05274735 28.37046654 19.27740373 22.62920194 17.61451721 16.84542847 C17.15475952 15.00559736 17.15475952 15.00559736 16 14 C15.7946463 14.68599274 15.5892926 15.37198547 15.37771606 16.07876587 C4.26006722 53.2134686 -6.90111963 90.33476003 -18.125 127.4375 C-18.6806057 129.27428101 -19.23620873 131.11106283 -19.79180908 132.94784546 C-21.98103672 140.18518558 -24.17039562 147.42248598 -26.3598938 154.65974426 C-33.20612797 177.29011854 -40.04642985 199.92225657 -46.85621643 222.56362915 C-48.9195128 229.42115042 -50.99261781 236.2756017 -53.07374573 243.12773132 C-69.16993476 285.47848169 -69.16993476 285.47848169 -69.6875 328.625 C-68.0559648 331.22051248 -68.0559648 331.22051248 -65 333 C-65 333.66 -65 334.32 -65 335 C-77.87 335 -90.74 335 -104 335 C-102.79956644 331.39869932 -102.06342283 331.24787567 -98.875 329.4375 C-73.51330819 312.9303641 -66.51180355 262.82004179 -58.53067017 235.87872314 C-53.91934677 220.32759514 -49.22868421 204.8003358 -44.54553223 189.27072144 C-42.93001905 183.91330095 -41.3159409 178.55544879 -39.70214844 173.19750977 C-34.70337366 156.60185758 -29.70143945 140.00716463 -24.6928978 123.41445732 C-12.36905872 82.60354425 -12.36905872 82.60354425 -0.1875 41.75 C0.08243774 40.84081818 0.35237549 39.93163635 0.63049316 38.99490356 C1.3668044 36.5129475 2.10005135 34.03011139 2.83203125 31.546875 C3.14588524 30.49012825 3.14588524 30.49012825 3.46607971 29.41203308 C5.63474008 22.02030077 7.18670987 14.71895966 6 7 C4.22280041 4.5854956 2.59200981 3.62000613 0 2 C0 1.34 0 0.68 0 0 Z " fill="#FFFFFF" transform="translate(3387,2921)"/>
<path d="M0 0 C9.24 0 18.48 0 28 0 C32.51532429 15.48238663 36.60689699 31.02487536 40.4921875 46.67578125 C41.08864697 49.06723171 41.68542422 51.45860293 42.28250122 53.84989929 C43.83420575 60.06803533 45.38166409 66.28722004 46.92816162 72.50665283 C48.51458805 78.88334463 50.10513697 85.25900793 51.6953125 91.63476562 C54.80085157 104.08885501 57.90203489 116.54402454 61 129 C65.01181891 115.22337865 68.78362399 101.40097383 72.35777855 87.50459862 C73.19219331 84.26131025 74.03036963 81.01901317 74.86946106 77.77693176 C77.24972872 68.57746406 79.62352382 59.37633082 81.99487305 50.17456055 C83.45701433 44.50192739 84.92338153 38.83039991 86.39226723 33.15950966 C86.94689344 31.01462743 87.49986598 28.86931686 88.05110741 26.72356224 C88.81943446 23.73288647 89.59310393 20.74363883 90.36791992 17.75463867 C90.59082703 16.88131897 90.81373413 16.00799927 91.043396 15.10821533 C91.25761703 14.28615097 91.47183807 13.46408661 91.69255066 12.61711121 C91.96431263 11.56293393 91.96431263 11.56293393 92.24156475 10.48746014 C93.32460802 6.9353745 94.69609304 3.47708523 96 0 C104.91 0 113.82 0 123 0 C126.53635102 11.10191705 129.50741285 22.31003413 132.4296875 33.5859375 C132.94743028 35.57498637 133.46543067 37.56396821 133.9836731 39.55288696 C135.34178602 44.76783764 136.69648282 49.98366961 138.05041504 55.19970703 C139.41048952 60.43705085 140.773711 65.6735752 142.13671875 70.91015625 C144.15262701 78.65628486 146.16670686 86.40288563 148.17919922 94.14990234 C151.11111594 105.43544649 154.05468319 116.71794664 157 128 C158.63516994 124.99359071 159.59148653 122.12850127 160.41738892 118.8114624 C160.81277107 117.23818176 160.81277107 117.23818176 161.21614075 115.63311768 C161.49882309 114.4880072 161.78150543 113.34289673 162.07275391 112.16308594 C162.52673302 110.34804565 162.52673302 110.34804565 162.98988342 108.49633789 C163.81752607 105.18345959 164.6409804 101.86959301 165.46258974 98.55521679 C166.32271353 95.08970183 167.1881748 91.62552043 168.05307007 88.16119385 C169.68945498 81.60322623 171.32103818 75.04407389 172.95089853 68.48448205 C174.80692635 61.01564779 176.66830489 53.54815046 178.53013349 46.08076048 C182.35937725 30.72198507 186.18119234 15.36137414 190 0 C199.24 0 208.48 0 218 0 C217.29669248 5.62646016 216.43801726 10.64432718 214.90893555 16.02734375 C214.69669374 16.79205679 214.48445192 17.55676983 214.26577854 18.34465599 C213.56146173 20.87713578 212.84910112 23.40727832 212.13671875 25.9375 C211.63122763 27.7490144 211.12625541 29.56067366 210.62176514 31.37246704 C209.26459156 36.24132958 207.90058417 41.10825342 206.5353508 45.97486115 C205.11907782 51.02813518 203.70927232 56.08321211 202.29907227 61.13818359 C200.28475576 68.35674919 198.26860727 75.57479789 196.24997616 82.79215813 C192.78437716 95.18350268 189.33237664 107.57857413 185.890625 119.9765625 C185.65474482 120.82624352 185.41886463 121.67592453 185.17583656 122.55135345 C184.03411166 126.66437818 182.89266092 130.77747892 181.75137329 134.890625 C179.66791256 142.39889088 177.58183196 149.90642905 175.49609375 157.4140625 C174.34238281 161.56742188 173.18867187 165.72078125 172 170 C163.09 170 154.18 170 145 170 C138.92729889 149.31860382 133.03025725 128.589135 127.14886475 107.85272217 C126.11474888 104.20766562 125.07960853 100.56290036 124.04445457 96.9181385 C123.02989908 93.34554334 122.0158703 89.77279884 121.00200272 86.20000839 C120.52619872 84.52345009 120.05026992 82.84692721 119.57419968 81.17044449 C118.90491431 78.81315528 118.23628851 76.45567999 117.56787109 74.09814453 C117.24987329 72.97821704 117.24987329 72.97821704 116.92545128 71.83566475 C115.79736316 67.85324102 114.68637543 63.86675669 113.59552002 59.8739624 C113.36702677 59.04037642 113.13853352 58.20679043 112.90311623 57.34794426 C112.46485896 55.74585771 112.02942616 54.14299514 111.59717369 52.53927803 C110.85782707 48.98126004 110.85782707 48.98126004 109 46 C108.73850159 46.93403656 108.47700317 47.86807312 108.20758057 48.83041382 C104.89015196 60.67910381 101.57079191 72.5272522 98.25 84.375 C97.98709545 85.3129818 97.7241909 86.25096359 97.45331955 87.21736908 C89.71216848 114.83369957 81.94012467 142.44008339 74 170 C65.09 170 56.18 170 47 170 C39.06805386 142.41636033 31.29901777 114.79260329 23.69171143 87.11773682 C22.43334769 82.54161875 21.17261029 77.96615475 19.91210938 73.390625 C17.68357742 65.30012432 15.4578859 57.20884571 13.23329735 49.11725998 C11.69288149 43.51559298 10.14951963 37.91474563 8.60412121 32.31445122 C7.56775224 28.55848445 6.53231824 24.80226025 5.49698067 21.04600906 C5.00424836 19.25932277 4.51107258 17.47275872 4.01743889 15.68632126 C3.33933704 13.23211324 2.6627762 10.77748541 1.98657227 8.32275391 C1.78389551 7.59079929 1.58121876 6.85884468 1.37240028 6.10470963 C0 1.11392262 0 1.11392262 0 0 Z " fill="#FFFFFF" transform="translate(1512,3423)"/>
<path d="M0 0 C7.92 0 15.84 0 24 0 C30.91049592 7.0501019 30.91049592 7.0501019 32.5859375 10.4765625 C35.11754025 15.33427388 38.1672798 19.71105571 41.3125 24.1875 C42.41262378 25.80040305 43.51024906 27.41501288 44.60546875 29.03125 C48.0672964 34.11489815 51.59036441 39.15430255 55.125 44.1875 C59.67695993 50.67219466 64.19807322 57.17585584 68.67626953 63.71166992 C72.75648082 69.66043756 76.87696002 75.58086042 81 81.5 C86.05934154 88.76416307 91.10713804 96.03560326 96.11132812 103.33789062 C100.38570568 109.5740428 104.69626188 115.78348939 109 122 C109.33 81.74 109.66 41.48 110 0 C118.91 0 127.82 0 137 0 C137 56.1 137 112.2 137 170 C128.75 170 120.5 170 112 170 C103.18737277 159.92842602 103.18737277 159.92842602 100.90625 155.42578125 C98.43424112 150.75254605 95.69567191 146.48258959 92.625 142.1875 C91.73968604 140.90145801 90.85695837 139.61363254 89.9765625 138.32421875 C86.3417566 133.03277533 82.66924812 127.76758835 79 122.5 C74.43823628 115.95111243 69.88616082 109.39635633 65.375 102.8125 C61.28774068 96.84831193 57.15181379 90.91941214 53 85 C48.68654576 78.84822615 44.38462602 72.68920019 40.125 66.5 C39.72152344 65.91476563 39.31804688 65.32953125 38.90234375 64.7265625 C34.87241657 58.85773651 30.95026323 52.92539485 27 47 C26.67 87.59 26.34 128.18 26 170 C17.42 170 8.84 170 0 170 C0 113.9 0 57.8 0 0 Z " fill="#FFFFFF" transform="translate(2293,3423)"/>
<path d="M0 0 C11.22621616 9.43379509 14.75737072 19.59714471 16.19921875 34.015625 C7.61921875 34.015625 -0.96078125 34.015625 -9.80078125 34.015625 C-11.12078125 30.385625 -12.44078125 26.755625 -13.80078125 23.015625 C-20.9116891 15.4226217 -29.02213989 11.3942387 -39.4375 10.8125 C-50.83628566 10.59232168 -60.52121345 11.75522242 -69.80078125 19.015625 C-75.0204533 24.51001663 -76.35375477 29.806425 -76.1640625 37.234375 C-75.44803923 42.71618756 -73.06538054 46.11850632 -68.875 49.62890625 C-57.98246039 56.909412 -44.10652811 59.70748125 -31.61328125 63.015625 C-14.08116557 67.69833201 3.45358566 73.68708777 13.44140625 90.05078125 C19.43395107 101.40162345 20.03073747 114.67347786 16.63671875 126.953125 C12.31458125 139.07324484 3.8858307 148.16854535 -7.36328125 154.265625 C-26.75370775 163.11462263 -51.06654262 164.56856698 -71.5 158.26953125 C-85.24783072 153.04698254 -96.68532072 145.26510323 -103.80078125 132.015625 C-106.79642374 124.63763311 -107.80078125 119.0943196 -107.80078125 111.015625 C-99.22078125 111.015625 -90.64078125 111.015625 -81.80078125 111.015625 C-80.48078125 114.645625 -79.16078125 118.275625 -77.80078125 122.015625 C-73.71205999 129.5735643 -67.57197574 132.82655123 -59.6484375 135.83203125 C-46.95368967 139.31638622 -32.53318897 137.61165766 -20.92578125 131.703125 C-14.62927078 127.93646249 -11.07164723 123.06726146 -8.80078125 116.015625 C-7.9828191 110.48939294 -8.57503887 105.73879916 -11.36328125 100.859375 C-20.39287486 89.27793972 -39.28520673 86.59324139 -52.78686523 83.03881836 C-69.96139799 78.49328245 -88.40075395 72.54482107 -98.80078125 57.015625 C-104.54393186 45.70495529 -105.51248036 33.15972793 -101.80078125 21.015625 C-96.99564812 8.34754675 -88.13829153 -1.29013949 -75.80078125 -6.984375 C-50.57214079 -16.73662257 -22.52921624 -15.96212253 0 0 Z " fill="#FFFFFF" transform="translate(2959.80078125,3433.984375)"/>
<path d="M0 0 C8.80106594 7.51757716 15.02894599 16.41688461 17.25 27.9296875 C17.25 30.2396875 17.25 32.5496875 17.25 34.9296875 C8.67 34.9296875 0.09 34.9296875 -8.75 34.9296875 C-9.74 31.9596875 -10.73 28.9896875 -11.75 25.9296875 C-14.3687171 19.67386332 -20.18447192 16.43926337 -26.22265625 13.8828125 C-36.92392901 10.46098773 -50.43114867 10.13815132 -60.75 14.9296875 C-67.63235761 18.62718232 -72.22733495 22.36169234 -74.75 29.9296875 C-75.47894134 36.65745756 -75.06295043 42.50333955 -70.75 47.9296875 C-61.04394749 56.77809313 -46.58871747 59.71089164 -34.25 62.9296875 C-16.45563773 67.57169505 4.04736387 73.01386157 14.0390625 89.96484375 C19.93800841 101.46918612 21.57780761 114.79804188 18.125 127.4921875 C12.9422555 141.3530158 3.48941656 150.62215409 -9.75 156.9296875 C-31.88783417 165.20317026 -58.53054458 164.99364599 -80.125 155.2421875 C-92.38851651 148.61055765 -100.14045834 138.98036787 -104.98828125 126.09375 C-106.10184722 121.46816827 -106.31925498 116.66788275 -106.75 111.9296875 C-97.84 111.9296875 -88.93 111.9296875 -79.75 111.9296875 C-79.09 114.8996875 -78.43 117.8696875 -77.75 120.9296875 C-73.13051088 129.65538916 -65.95815891 134.04288527 -56.75 136.9296875 C-44.65542484 140.00457949 -30.11152248 138.82064216 -19.3125 132.50390625 C-13.84070999 128.61129093 -9.96483409 124.34055748 -7.75 117.9296875 C-6.84378621 111.54803461 -7.13754203 105.98176564 -11.04296875 100.69921875 C-21.41790121 89.94442607 -39.79473291 87.16254633 -53.625 83.3671875 C-70.84429394 78.60620467 -88.44225227 72.56861024 -98.2109375 56.53125 C-103.69655657 45.71154829 -103.5803572 31.76315044 -100.1875 20.2421875 C-97.95132186 14.68301736 -94.83436034 10.28307757 -90.75 5.9296875 C-90.11449219 5.24132813 -89.47898437 4.55296875 -88.82421875 3.84375 C-66.7199663 -17.8858541 -24.1584365 -18.1874593 0 0 Z " fill="#FFFFFF" transform="translate(2774.75,3433.0703125)"/>
<path d="M0 0 C35.31 0 70.62 0 107 0 C107 7.59 107 15.18 107 23 C80.6 23 54.2 23 27 23 C27 39.5 27 56 27 73 C51.42 73 75.84 73 101 73 C101 80.59 101 88.18 101 96 C76.58 96 52.16 96 27 96 C27 112.83 27 129.66 27 147 C53.73 147 80.46 147 108 147 C108 154.59 108 162.18 108 170 C72.36 170 36.72 170 0 170 C0 113.9 0 57.8 0 0 Z " fill="#FFFFFF" transform="translate(2500,3423)"/>
<path d="M0 0 C35.31 0 70.62 0 107 0 C107 7.59 107 15.18 107 23 C80.6 23 54.2 23 27 23 C27 39.5 27 56 27 73 C51.42 73 75.84 73 101 73 C101 80.59 101 88.18 101 96 C76.58 96 52.16 96 27 96 C27 112.83 27 129.66 27 147 C53.73 147 80.46 147 108 147 C108 154.59 108 162.18 108 170 C72.36 170 36.72 170 0 170 C0 113.9 0 57.8 0 0 Z " fill="#FFFFFF" transform="translate(1787,3423)"/>
<path d="M0 0 C8.91 0 17.82 0 27 0 C27 48.51 27 97.02 27 147 C52.08 147 77.16 147 103 147 C103 154.59 103 162.18 103 170 C69.01 170 35.02 170 0 170 C0 113.9 0 57.8 0 0 Z " fill="#FFFFFF" transform="translate(2127,3423)"/>
<path d="M0 0 C8.58 0 17.16 0 26 0 C26 48.51 26 97.02 26 147 C51.41 147 76.82 147 103 147 C103 154.59 103 162.18 103 170 C69.01 170 35.02 170 0 170 C0 113.9 0 57.8 0 0 Z " fill="#FFFFFF" transform="translate(1962,3423)"/>
</svg>
